<svg width="401" height="863" viewBox="0 0 401 863" fill="none" xmlns="http://www.w3.org/2000/svg">
    <path d="M3 34C3 15.2223 18.2223 0 37 0H362C380.778 0 396 15.2223 396 34V158H397C398.105 158 399 158.895 399 160V244C399 245.105 398.105 246 397 246H396V829C396 847.778 380.778 863 362 863H37C18.2223 863 3 847.778 3 829V276H2C0.89543 276 0 275.105 0 274V226C0 224.895 0.895431 224 2 224H3V210H2C0.89543 210 0 209.105 0 208V160C0 158.895 0.895431 158 2 158H3V126H2C0.89543 126 0 125.105 0 124V98C0 96.8954 0.895431 96 2 96H3V34Z" fill="#242A31"/>
    <path d="M6 36C6 18.3269 20.3269 4 38 4H362C379.673 4 394 18.3269 394 36V828C394 845.673 379.673 860 362 860H38C20.3269 860 6 845.673 6 828V36Z" fill="#242A31"/>
    <path fill-rule="evenodd" clip-rule="evenodd" d="M361 5H38C20.8792 5 7 18.8792 7 36V828C7 845.121 20.8792 859 38 859H361C378.121 859 392 845.121 392 828V36C392 18.8792 378.121 5 361 5ZM38 4C20.3269 4 6 18.3269 6 36V828C6 845.673 20.3269 860 38 860H361C378.673 860 393 845.673 393 828V36C393 18.3269 378.673 4 361 4H38Z" fill="black" fill-opacity="0.5"/>
    <path d="M12 55C12 43.9543 20.9305 35 31.9468 35H367.053C378.07 35 387 43.9543 387 55V827C387 838.046 378.07 847 367.053 847H31.9468C20.9305 847 12 838.046 12 827V55Z" fill="white"/>
    <path d="M227.91 27.1604C231.171 27.1604 233.815 24.5169 233.815 21.256C233.815 17.9951 231.171 15.3516 227.91 15.3516C224.649 15.3516 222.006 17.9951 222.006 21.256C222.006 24.5169 224.649 27.1604 227.91 27.1604Z" fill="#13151B"/>
    <path d="M227.91 24.7987C229.866 24.7987 231.452 23.2126 231.452 21.256C231.452 19.2995 229.866 17.7134 227.91 17.7134C225.953 17.7134 224.367 19.2995 224.367 21.256C224.367 23.2126 225.953 24.7987 227.91 24.7987Z" fill="#242A31"/>
    <path d="M206.534 17.7134H168.986C166.963 17.7134 165.323 19.2995 165.323 21.256C165.323 23.2126 166.963 24.7987 168.986 24.7987H206.534C208.557 24.7987 210.197 23.2126 210.197 21.256C210.197 19.2995 208.557 17.7134 206.534 17.7134Z" fill="#13151B"/>
    <path d="M29.5508 58.396H32.0996V51.6284L29.624 53.2324V51.3574L32.2241 49.6802H34.1724V58.396H36.5234V60H29.5508V58.396Z" fill="black"/>
    <path d="M44.6973 58.3081V60H37.4829V58.5718L40.9619 54.873C41.3428 54.458 41.6284 54.1309 41.8188 53.8916C42.0142 53.6475 42.1655 53.4082 42.2729 53.1738C42.3804 52.9346 42.4341 52.6855 42.4341 52.4268C42.4341 52.0898 42.3169 51.8213 42.0825 51.6211C41.8481 51.416 41.5186 51.3135 41.0938 51.3135C40.6885 51.3135 40.3174 51.4233 39.9805 51.6431C39.6436 51.8579 39.2798 52.1997 38.8892 52.6685L37.5562 51.3721C38.0005 50.7959 38.5205 50.3442 39.1162 50.0171C39.7119 49.6899 40.3906 49.5264 41.1523 49.5264C42.2314 49.5264 43.0615 49.7803 43.6426 50.2881C44.2236 50.791 44.5142 51.5039 44.5142 52.4268C44.5142 52.8467 44.4312 53.2422 44.2651 53.6133C44.0991 53.9795 43.8867 54.3188 43.6279 54.6313C43.374 54.939 43.0151 55.3345 42.5513 55.8179L42.2803 56.1035L40.1636 58.3081H44.6973Z" fill="black"/>
    <path d="M47.8101 54.4775C47.439 54.4775 47.1436 54.3677 46.9238 54.1479C46.7041 53.9282 46.5942 53.6328 46.5942 53.2617C46.5942 52.8955 46.7041 52.6025 46.9238 52.3828C47.1436 52.1631 47.439 52.0532 47.8101 52.0532C48.1714 52.0532 48.4619 52.1631 48.6816 52.3828C48.9014 52.6025 49.0112 52.8955 49.0112 53.2617C49.0112 53.623 48.8989 53.916 48.6743 54.1406C48.4546 54.3652 48.1665 54.4775 47.8101 54.4775ZM47.8101 60.0732C47.439 60.0732 47.1436 59.9634 46.9238 59.7437C46.7041 59.5239 46.5942 59.2285 46.5942 58.8574C46.5942 58.4912 46.7041 58.1982 46.9238 57.9785C47.1436 57.7539 47.439 57.6416 47.8101 57.6416C48.1714 57.6416 48.4619 57.7539 48.6816 57.9785C48.9014 58.1982 49.0112 58.4912 49.0112 58.8574C49.0112 59.2188 48.8989 59.5117 48.6743 59.7363C48.4546 59.9609 48.1665 60.0732 47.8101 60.0732Z" fill="black"/>
    <path d="M58.042 58.3081V60H50.8276V58.5718L54.3066 54.873C54.6875 54.458 54.9731 54.1309 55.1636 53.8916C55.3589 53.6475 55.5103 53.4082 55.6177 53.1738C55.7251 52.9346 55.7788 52.6855 55.7788 52.4268C55.7788 52.0898 55.6616 51.8213 55.4272 51.6211C55.1929 51.416 54.8633 51.3135 54.4385 51.3135C54.0332 51.3135 53.6621 51.4233 53.3252 51.6431C52.9883 51.8579 52.6245 52.1997 52.2339 52.6685L50.9009 51.3721C51.3452 50.7959 51.8652 50.3442 52.4609 50.0171C53.0566 49.6899 53.7354 49.5264 54.4971 49.5264C55.5762 49.5264 56.4062 49.7803 56.9873 50.2881C57.5684 50.791 57.8589 51.5039 57.8589 52.4268C57.8589 52.8467 57.7759 53.2422 57.6099 53.6133C57.4438 53.9795 57.2314 54.3188 56.9727 54.6313C56.7188 54.939 56.3599 55.3345 55.896 55.8179L55.625 56.1035L53.5083 58.3081H58.042Z" fill="black"/>
    <path d="M62.6123 60.1465C61.8994 60.1465 61.2891 60.0146 60.7812 59.751C60.2734 59.4824 59.8169 59.0259 59.4116 58.3813L61.0522 57.3926C61.2769 57.7588 61.5186 58.02 61.7773 58.1763C62.0361 58.3325 62.3291 58.4106 62.6562 58.4106C63.2129 58.4106 63.6426 58.1519 63.9453 57.6343C64.2529 57.1167 64.4067 56.3501 64.4067 55.3345C64.1919 55.6909 63.8916 55.9644 63.5059 56.1548C63.1201 56.3403 62.6807 56.4331 62.1875 56.4331C61.5869 56.4331 61.0596 56.2964 60.6055 56.0229C60.1562 55.7495 59.8071 55.3564 59.5581 54.8438C59.314 54.3311 59.1919 53.7256 59.1919 53.0273C59.1919 52.3291 59.3237 51.7188 59.5874 51.1963C59.8511 50.6689 60.2417 50.2588 60.7593 49.9658C61.2817 49.6729 61.9141 49.5264 62.6562 49.5264C63.9014 49.5264 64.8413 49.9438 65.4761 50.7788C66.1157 51.6089 66.4355 52.8833 66.4355 54.6021C66.4355 56.4233 66.1084 57.8027 65.4541 58.7402C64.7998 59.6777 63.8525 60.1465 62.6123 60.1465ZM62.7734 54.7778C63.0371 54.7778 63.2812 54.7192 63.5059 54.6021C63.7354 54.48 63.9209 54.292 64.0625 54.0381C64.2041 53.7793 64.2749 53.457 64.2749 53.0713C64.2749 52.7344 64.2114 52.4292 64.0845 52.1558C63.9575 51.8774 63.7769 51.6602 63.5425 51.5039C63.3081 51.3477 63.0371 51.2695 62.7295 51.2695C62.2656 51.2695 61.9043 51.4233 61.6455 51.731C61.3867 52.0386 61.2573 52.4609 61.2573 52.998C61.2573 53.5498 61.3867 53.9844 61.6455 54.3018C61.9043 54.6191 62.2803 54.7778 62.7734 54.7778Z" fill="black"/>
    <path d="M323.999 57C323.999 56.4477 324.447 56 324.999 56L325.999 56C326.551 56 326.999 56.4477 326.999 57V59C326.999 59.5523 326.551 60 325.999 60L324.999 60C324.447 60 323.999 59.5523 323.999 59L323.999 57Z" fill="black"/>
    <path d="M327.999 53.972C327.999 53.4308 328.43 52.9878 328.971 52.9724L329.971 52.944C330.534 52.928 330.999 53.3802 330.999 53.9436V59.0001C330.999 59.5524 330.551 60.0001 329.999 60.0001H328.999C328.447 60.0001 327.999 59.5524 327.999 59.0001V53.972Z" fill="black"/>
    <path d="M331.999 52C331.999 51.4477 332.447 51 332.999 51H334.004C334.554 51 335.001 51.4448 335.004 51.9953L335.037 58.9953C335.04 59.5494 334.591 60 334.037 60L332.999 60C332.447 60 331.999 59.5523 331.999 59V52Z" fill="black"/>
    <path d="M335.999 50C335.999 49.4477 336.447 49 336.999 49H337.999C338.551 49 338.999 49.4477 338.999 50V59C338.999 59.5523 338.551 60 337.999 60L336.999 60C336.447 60 335.999 59.5523 335.999 59V50Z" fill="#C2C3C5"/>
    <path d="M350.25 51.9631C350.25 50.9951 351.036 50.211 352.004 50.2131L367.004 50.2456C367.969 50.2477 368.75 51.0306 368.75 51.9956V56.9999C368.75 57.9664 367.966 58.7499 367 58.7499H352C351.034 58.7499 350.25 57.9664 350.25 56.9999V51.9631Z" stroke="#74777A" stroke-width="0.5"/>
    <path d="M351 52.25C351 51.5596 351.56 51 352.25 51H366.75C367.44 51 368 51.5596 368 52.25V56.75C368 57.4404 367.44 58 366.75 58H352.25C351.56 58 351 57.4404 351 56.75V52.25Z" fill="black"/>
    <path d="M369 53.558C369 53.526 369.026 53.5 369.058 53.5C369.09 53.5 369.116 53.526 369.116 53.558V55.442C369.116 55.474 369.09 55.5 369.058 55.5C369.026 55.5 369 55.474 369 55.442V53.558Z" stroke="#74777A"/>
</svg>
